<svg width="19" height="18" viewBox="0 0 19 18" fill="none" xmlns="http://www.w3.org/2000/svg">
<path fill-rule="evenodd" clip-rule="evenodd" d="M18.3785 9C18.3785 13.9706 14.3127 18 9.29739 18C4.28205 18 0.216309 13.9706 0.216309 9C0.216309 4.02944 4.28205 0 9.29739 0C14.3127 0 18.3785 4.02944 18.3785 9ZM11.049 9.136L11.7755 8.4C12.2356 7.936 12.5262 7.304 12.5262 6.6C12.5262 5.75131 12.1861 4.93737 11.5805 4.33726C10.975 3.73714 10.1537 3.4 9.29741 3.4C8.44107 3.4 7.61981 3.73714 7.01428 4.33726C6.40876 4.93737 6.06858 5.75131 6.06858 6.6H7.683C7.683 6.17565 7.85309 5.76869 8.15585 5.46863C8.45861 5.16857 8.86924 5 9.29741 5C10.1853 5 10.9118 5.712 10.9118 6.6C10.9118 7.04 10.7342 7.44 10.4356 7.728L9.43464 8.736C8.85345 9.312 8.4902 10.112 8.4902 11V11.4H10.1046C10.1046 10.2 10.4679 9.712 11.049 9.136ZM8.4902 13V14.6H10.1046V13H8.4902Z" fill="#3271D2"/>
</svg>
