<svg width="82" height="23" viewBox="0 0 82 23" fill="none" xmlns="http://www.w3.org/2000/svg">
<rect width="82" height="23" rx="11.5" fill="#E9F0FA"/>
<path d="M15.3721 14.3408C15.3721 15.2204 15.0531 15.9062 14.415 16.3984C13.777 16.8906 12.9111 17.1367 11.8174 17.1367C10.6325 17.1367 9.72103 16.984 9.08301 16.6787V15.5576C9.49316 15.7308 9.93978 15.8675 10.4229 15.9678C10.9059 16.068 11.3844 16.1182 11.8584 16.1182C12.6331 16.1182 13.2165 15.9723 13.6084 15.6807C14.0003 15.3844 14.1963 14.9743 14.1963 14.4502C14.1963 14.1038 14.1257 13.8213 13.9844 13.6025C13.8477 13.3792 13.6152 13.1742 13.2871 12.9873C12.9635 12.8005 12.4691 12.5885 11.8037 12.3516C10.874 12.0189 10.2087 11.6247 9.80762 11.1689C9.41113 10.7132 9.21289 10.1185 9.21289 9.38477C9.21289 8.61458 9.50228 8.00163 10.0811 7.5459C10.6598 7.09017 11.4255 6.8623 12.3779 6.8623C13.3714 6.8623 14.2852 7.0446 15.1191 7.40918L14.7568 8.4209C13.932 8.07454 13.1299 7.90137 12.3506 7.90137C11.7354 7.90137 11.2546 8.03353 10.9082 8.29785C10.5618 8.56217 10.3887 8.92904 10.3887 9.39844C10.3887 9.74479 10.4525 10.0296 10.5801 10.2529C10.7077 10.4717 10.9219 10.6745 11.2227 10.8613C11.528 11.0436 11.9928 11.2464 12.6172 11.4697C13.6654 11.8434 14.3854 12.2445 14.7773 12.6729C15.1738 13.1012 15.3721 13.6572 15.3721 14.3408ZM21.8525 17L21.627 15.9336H21.5723C21.1986 16.403 20.8249 16.722 20.4512 16.8906C20.082 17.0547 19.6195 17.1367 19.0635 17.1367C18.3206 17.1367 17.7373 16.9453 17.3135 16.5625C16.8942 16.1797 16.6846 15.6351 16.6846 14.9287C16.6846 13.4157 17.8945 12.6227 20.3145 12.5498L21.5859 12.5088V12.0439C21.5859 11.4561 21.4583 11.0231 21.2031 10.7451C20.9525 10.4626 20.5492 10.3213 19.9932 10.3213C19.3688 10.3213 18.6624 10.5127 17.874 10.8955L17.5254 10.0273C17.8945 9.82682 18.2979 9.6696 18.7354 9.55566C19.1774 9.44173 19.6195 9.38477 20.0615 9.38477C20.9548 9.38477 21.6156 9.58301 22.0439 9.97949C22.4769 10.376 22.6934 11.0117 22.6934 11.8867V17H21.8525ZM19.2891 16.2002C19.9954 16.2002 20.5492 16.0065 20.9502 15.6191C21.3558 15.2318 21.5586 14.6895 21.5586 13.9922V13.3154L20.4238 13.3633C19.5215 13.3952 18.8698 13.5365 18.4688 13.7871C18.0723 14.0332 17.874 14.4183 17.874 14.9424C17.874 15.3525 17.9971 15.6647 18.2432 15.8789C18.4938 16.0931 18.8424 16.2002 19.2891 16.2002ZM26.6787 17L23.835 9.50781H25.0518L26.665 13.9512C27.0296 14.9902 27.2438 15.6647 27.3076 15.9746H27.3623C27.4124 15.7331 27.5697 15.234 27.834 14.4775C28.1029 13.7165 28.7021 12.0599 29.6318 9.50781H30.8486L28.0049 17H26.6787ZM35.2168 17.1367C34.1094 17.1367 33.2344 16.7995 32.5918 16.125C31.9538 15.4505 31.6348 14.514 31.6348 13.3154C31.6348 12.1077 31.931 11.1484 32.5234 10.4375C33.1204 9.72656 33.9202 9.37109 34.9229 9.37109C35.8617 9.37109 36.6045 9.68099 37.1514 10.3008C37.6982 10.916 37.9717 11.7295 37.9717 12.7412V13.459H32.8105C32.8333 14.3385 33.0544 15.0062 33.4736 15.4619C33.8975 15.9176 34.4922 16.1455 35.2578 16.1455C36.0645 16.1455 36.862 15.9769 37.6504 15.6396V16.6514C37.2493 16.8245 36.8688 16.9476 36.5088 17.0205C36.1533 17.098 35.7227 17.1367 35.2168 17.1367ZM34.9092 10.3213C34.3076 10.3213 33.8268 10.5173 33.4668 10.9092C33.1113 11.3011 32.9017 11.8434 32.8379 12.5361H36.7549C36.7549 11.8206 36.5954 11.2738 36.2764 10.8955C35.9574 10.5127 35.5016 10.3213 34.9092 10.3213ZM49.2236 9.35742C49.2236 9.99544 49.0436 10.5173 48.6836 10.9229C48.3281 11.3285 47.8223 11.5996 47.166 11.7363V11.791C47.9681 11.8913 48.5628 12.1465 48.9502 12.5566C49.3376 12.9668 49.5312 13.5046 49.5312 14.1699C49.5312 15.1224 49.2008 15.8561 48.54 16.3711C47.8792 16.8815 46.9404 17.1367 45.7236 17.1367C45.195 17.1367 44.7096 17.0957 44.2676 17.0137C43.8301 16.9362 43.404 16.7972 42.9893 16.5967V15.5166C43.4222 15.7308 43.8825 15.8949 44.3701 16.0088C44.8623 16.1182 45.3271 16.1729 45.7646 16.1729C47.4919 16.1729 48.3555 15.4961 48.3555 14.1426C48.3555 12.9303 47.403 12.3242 45.498 12.3242H44.5137V11.3467H45.5117C46.291 11.3467 46.9085 11.1758 47.3643 10.834C47.82 10.4876 48.0479 10.0091 48.0479 9.39844C48.0479 8.91081 47.8792 8.52799 47.542 8.25C47.2093 7.97201 46.7559 7.83301 46.1816 7.83301C45.7441 7.83301 45.3317 7.89225 44.9443 8.01074C44.557 8.12923 44.1149 8.34798 43.6182 8.66699L43.0439 7.90137C43.4541 7.5778 43.9258 7.32487 44.459 7.14258C44.9967 6.95573 45.5618 6.8623 46.1543 6.8623C47.125 6.8623 47.8792 7.08561 48.417 7.53223C48.9548 7.97428 49.2236 8.58268 49.2236 9.35742ZM57.666 11.9893C57.666 13.7165 57.3926 15.0062 56.8457 15.8584C56.3034 16.7106 55.4717 17.1367 54.3506 17.1367C53.2751 17.1367 52.457 16.7015 51.8965 15.8311C51.3359 14.9561 51.0557 13.6755 51.0557 11.9893C51.0557 10.2484 51.3268 8.95638 51.8691 8.11328C52.4115 7.27018 53.2386 6.84863 54.3506 6.84863C55.4352 6.84863 56.2578 7.28841 56.8184 8.16797C57.3835 9.04753 57.666 10.3213 57.666 11.9893ZM52.2041 11.9893C52.2041 13.443 52.375 14.5026 52.7168 15.168C53.0586 15.8288 53.6032 16.1592 54.3506 16.1592C55.1071 16.1592 55.654 15.8242 55.9912 15.1543C56.333 14.4798 56.5039 13.4248 56.5039 11.9893C56.5039 10.5537 56.333 9.50326 55.9912 8.83789C55.654 8.16797 55.1071 7.83301 54.3506 7.83301C53.6032 7.83301 53.0586 8.16341 52.7168 8.82422C52.375 9.48047 52.2041 10.5355 52.2041 11.9893ZM60.0244 9.98633C60.0244 10.7611 60.1087 11.3421 60.2773 11.7295C60.446 12.1169 60.7194 12.3105 61.0977 12.3105C61.8451 12.3105 62.2188 11.5358 62.2188 9.98633C62.2188 8.44596 61.8451 7.67578 61.0977 7.67578C60.7194 7.67578 60.446 7.86719 60.2773 8.25C60.1087 8.63281 60.0244 9.21159 60.0244 9.98633ZM63.1553 9.98633C63.1553 11.0254 62.9798 11.8115 62.6289 12.3447C62.2826 12.8734 61.7721 13.1377 61.0977 13.1377C60.4596 13.1377 59.9629 12.8665 59.6074 12.3242C59.2565 11.7819 59.0811 11.0026 59.0811 9.98633C59.0811 8.95182 59.2497 8.17253 59.5869 7.64844C59.9287 7.12435 60.4323 6.8623 61.0977 6.8623C61.7585 6.8623 62.2666 7.13346 62.6221 7.67578C62.9775 8.2181 63.1553 8.98828 63.1553 9.98633ZM66.04 13.9922C66.04 14.7715 66.1243 15.3548 66.293 15.7422C66.4616 16.125 66.7373 16.3164 67.1201 16.3164C67.5029 16.3164 67.7855 16.1273 67.9678 15.749C68.1501 15.3662 68.2412 14.7806 68.2412 13.9922C68.2412 13.2129 68.1501 12.6364 67.9678 12.2627C67.7855 11.8844 67.5029 11.6953 67.1201 11.6953C66.7373 11.6953 66.4616 11.8844 66.293 12.2627C66.1243 12.6364 66.04 13.2129 66.04 13.9922ZM69.1777 13.9922C69.1777 15.0267 69.0023 15.8105 68.6514 16.3438C68.305 16.8724 67.7946 17.1367 67.1201 17.1367C66.473 17.1367 65.974 16.8656 65.623 16.3232C65.2767 15.7809 65.1035 15.0039 65.1035 13.9922C65.1035 12.9577 65.2721 12.1784 65.6094 11.6543C65.9512 11.1302 66.4548 10.8682 67.1201 10.8682C67.7673 10.8682 68.2708 11.137 68.6309 11.6748C68.9954 12.208 69.1777 12.9805 69.1777 13.9922ZM67.4141 7.00586L61.8701 17H60.8652L66.4092 7.00586H67.4141ZM72.124 14.2451H71.4062L71.0576 7.00586H72.4727L72.124 14.2451ZM70.9346 16.2754C70.9346 15.6556 71.208 15.3457 71.7549 15.3457C72.0192 15.3457 72.222 15.4255 72.3633 15.585C72.5091 15.7445 72.582 15.9746 72.582 16.2754C72.582 16.5671 72.5091 16.7949 72.3633 16.959C72.2174 17.1185 72.0146 17.1982 71.7549 17.1982C71.5179 17.1982 71.3219 17.1276 71.167 16.9863C71.012 16.8405 70.9346 16.6035 70.9346 16.2754Z" fill="#3271D2"/>
</svg>
